<svg xmlns:xlink="http://www.w3.org/1999/xlink" xmlns="http://www.w3.org/2000/svg" fill="#aa8375" height="30" width="30" viewBox="0 0 20 32"><path d="M19.12 13.6H17.2v-2.24q0-2-1-3.68T13.52 5 9.84 4 6.12 5 3.44 7.68t-.96 3.68v2.24H.56q-.24 0-.4.16t-.16.4v13.28q0 .24.16.4t.4.16h18.56q.16 0 .32-.16t.16-.4V14.16q0-.24-.16-.4t-.32-.16zm-8.08 8.08v2.48q0 .24-.24.24H8.88q-.32 0-.32-.24v-2.48q-.56-.32-.88-.88t-.32-1.2q0-.96.72-1.68t1.72-.72 1.72.72.72 1.68q0 .64-.32 1.2t-.88.88zm3.68-8.08H4.88v-2.32q0-2 1.44-3.44T9.8 6.4t3.48 1.44 1.44 3.44v2.32z" fill="#AA8375"></path></svg>